<svg width="381" height="438" viewBox="0 0 381 438" fill="none" xmlns="http://www.w3.org/2000/svg">
<path d="M47.0268 56.9996C34.015 75.6054 14.7652 108.233 5.42502 153.031C-2.38634 190.496 -0.319326 222.336 2.72032 243.176C23.1252 257.907 39.7679 260.882 50.9709 260.996C77.104 261.261 106.737 246.292 135.076 245.613C140.937 245.474 146.975 245.653 146.975 245.653C159.295 246.019 169.56 247.332 177 248.564C170.457 246.736 66.9613 216.139 45.6179 127.512C38.927 99.7289 42.3551 74.741 47.0268 56.9996Z" fill="#EA9127"/>
<path d="M6.00018 256.775C10.6712 278.796 21.117 312.628 46.4782 346.054C99.8723 416.43 178.898 431.656 199.717 435.004C196.231 415.258 193.44 386.999 197.443 353.508C201.465 319.852 210.913 292.92 219 274.497C182.498 255.671 153.877 253.696 134.182 255.564C97.1411 259.077 70.445 278.196 31.4383 267.662C20.1252 264.608 11.446 260.049 6.00066 256.775L6.00018 256.775Z" fill="#EA9127"/>
<path d="M60.0004 361.687C77.1189 361.136 101.238 358.203 127.765 347.47C178.706 326.859 207.336 290.104 219 273C214.762 282.712 210.796 293.303 207.382 304.767C192.186 355.777 194.437 402.091 199.696 435C165.72 429.039 118.791 414.812 77.3565 378.588C71.018 373.046 65.2501 367.377 60.0004 361.687Z" fill="#903518"/>
<path d="M46.1472 56.9996C36.4414 71.2452 25.4602 90.3321 16.6183 114.2C3.40348 149.871 0.321881 181.765 0 203.611C5.38221 198.063 10.8081 194.573 15.5782 192.311C53.3155 174.408 98.5919 210.229 102 213C91.5808 205.247 52.6736 174.375 43.0781 119.827C38.3918 93.1874 42.4246 70.7271 46.1476 57.0001L46.1472 56.9996Z" fill="#F6D365"/>
<path d="M6.00066 255.004C16.8745 267.541 40.335 290.861 77.3085 301.923C149.898 323.639 211.074 279.102 219 273.13C208.957 288.43 186.355 318.386 146.332 339.837C110.75 358.909 77.912 362.408 60.1753 363.004C49.9801 351.671 37.3164 335.296 26.2878 313.518C14.8836 290.998 9.09566 270.341 6.00018 255.004H6.00066Z" fill="#CC5520"/>
<path d="M184.375 0C180.064 7.58511 174.4 19.7623 172.068 35.6431C170.262 47.9446 171.044 58.4578 172.227 66C180.213 63.1859 189.046 60.4498 198.674 58.014C209.148 55.3645 218.988 53.4689 228 52.1113C225.103 44.7826 220.275 34.9429 212.176 24.7634C202.425 12.5066 191.838 4.6674 184.375 0L184.375 0Z" fill="#EA9127"/>
<path d="M371.015 5.9989C363.792 9.94772 353.585 16.5981 343.613 27.3058C333.475 38.1919 327.467 49.0964 324 56.7082C332.543 58.686 341.825 61.2375 351.655 64.5512C361.433 67.847 370.329 71.4173 378.305 74.9989C380.143 66.961 382.009 54.536 380.37 39.5122C378.771 24.8542 374.453 13.3759 371.016 5.9989H371.015Z" fill="#EA9127"/>
<path d="M172.046 77.4359C170.856 89.6803 170.41 104.784 172.183 121.921C174.073 140.187 177.965 155.75 181.946 167.999C192.588 143.424 205.759 128.061 216.367 118.346C226.043 109.486 236.752 102.426 241.139 88.3432C244.509 77.5267 242.693 67.2473 240.478 59.999C231.425 60.9155 221.294 62.4624 210.38 65.0039C195.518 68.4648 182.674 72.9617 172.046 77.4359Z" fill="#E39334"/>
<path d="M250.659 57.6729C252.07 62.4657 253.767 70.4002 252.879 80.1619C252.541 83.8814 251.716 92.0993 247.109 100.915C241.288 112.055 235.119 113.258 221.041 129.688C217.429 133.903 214.685 137.501 213 139.78C233.491 150.186 253.982 160.593 274.473 171C284.393 165.671 329.896 139.932 337.826 91.937C338.971 85.0088 339.491 76.6632 338.401 67.0795C325.442 63.249 309.392 59.661 290.804 57.9867C275.744 56.6304 262.2 56.817 250.659 57.6738L250.659 57.6729Z" fill="#F6D365"/>
<path d="M379.745 81.9443C380.574 88.979 381.059 96.5932 380.995 104.716C380.757 134.586 373.177 159.354 365.687 176.997C365.653 175.592 364.973 159.291 350.649 149.992C336.985 141.121 322.544 146.18 321 146.751C326.763 140.315 334.27 130.389 339.981 116.78C348.33 96.8858 348.682 79.0229 348.11 68.9973C358.655 73.3131 369.2 77.629 379.745 81.9448V81.9443Z" fill="#EA9127"/>
<path d="M186 179.997C200.366 206.083 214.733 232.168 229.1 258.254C238.481 261.862 252.825 266.142 270.747 266.885C289.654 267.668 305.001 264.201 314.846 261.163C330.897 236.034 346.949 210.905 363 185.776C357.773 187.186 350.917 188.767 342.789 189.928C335.933 190.908 327.536 191.68 316.514 191.631C294.589 191.533 293.445 188.321 273.013 187.643C254.622 187.033 254.53 189.6 233.639 188.578C221.197 187.97 211.827 186.599 203.425 184.771C196.322 183.226 190.402 181.46 186 179.998L186 179.997Z" fill="#F6D365"/>
<path d="M227.933 273C239.955 287.582 251.978 302.162 264 316.743C252.855 332.681 240.609 352.805 229.55 377.125C219.38 399.491 212.559 420.25 207.896 438C203.036 407.275 200.528 362.89 213.94 313.011C217.917 298.219 222.776 284.869 227.932 273.001L227.933 273Z" fill="#F6D365"/>
<path d="M304.568 281.999C289.395 297.887 271.323 319.802 254.786 348.336C235.764 381.157 225.147 411.739 219 434.96C241.576 438.761 260.115 438.335 272.838 437.209C293.79 435.355 302.363 431.302 308.548 426.841C311.177 424.944 319.274 419.103 323.838 409.547C333.651 389.002 318.269 369.858 309.713 330.606C307.271 319.401 304.583 302.88 304.568 281.999H304.568Z" fill="#903518"/>
<path d="M264 180.002C258.722 176.713 251.542 172.413 242.775 167.673C238.077 165.132 234.384 163.256 230.357 161.212C224.412 158.196 216.639 154.345 207.364 150.003C206.081 152.407 203.966 157.176 204.001 163.465C204.031 168.982 205.701 173.245 206.852 175.616C214.016 175.366 221.797 175.393 230.104 175.853C242.701 176.551 254.07 178.111 264 180.003L264 180.002Z" fill="#532322"/>
<path d="M282 183.002C291.96 176.804 302.887 170.57 314.776 164.559C323.34 160.229 331.645 156.397 339.618 153.002C340.715 155.865 342.579 161.836 341.825 169.441C341.236 175.381 339.295 179.845 337.959 182.39C330.899 181.511 323.158 180.913 314.825 180.81C302.649 180.659 291.623 181.592 282 183.002Z" fill="#532322"/>
<path d="M240 270.001C248.236 272.21 258.825 274.248 271.226 274.692C283.774 275.142 294.582 273.832 303 272.187C292.023 284.458 281.046 296.73 270.07 309.001C260.047 296.001 250.023 283.001 240 270.001Z" fill="#532322"/>
<path d="M282 183.002C287.407 179.641 294.752 175.268 303.681 170.514C308.466 167.965 312.218 166.1 316.309 164.07C322.348 161.072 330.239 157.261 339.634 153.002C340.707 155.856 342.416 161.484 341.908 168.689C341.462 175.01 339.508 179.766 338.205 182.394C331.219 181.554 323.61 180.983 315.453 180.868C303.085 180.695 291.852 181.602 282.001 183.002L282 183.002Z" fill="#532322"/>
<path d="M181.788 167.999C175.999 148.847 171.27 125.244 171.011 98.1828C170.941 90.9016 171.201 83.9377 171.704 77.3216C182.033 73.0359 194.397 68.7381 208.619 65.3481C220.034 62.6272 230.603 60.9776 240 59.999C238.052 64.1106 234.692 70.4276 229.322 77.2382C213.781 96.9509 198.417 99.2308 188.356 110.839C180.881 119.465 174.393 135.481 181.789 167.999L181.788 167.999Z" fill="#CC5520"/>
<path d="M322.501 129C313.436 126.954 297.974 122.162 282.777 110.033C259.147 91.1734 251.39 66.7309 249 57.6754C261.242 56.7807 275.852 56.6045 292.208 58.2039C310.217 59.9647 325.791 63.4335 338.422 67.1094C339.165 73.6432 339.426 82.255 337.756 92.1176C334.841 109.332 327.471 121.912 322.501 128.999V129Z" fill="#CC5520"/>
<path d="M346.763 68.9973C357.751 73.3131 368.738 77.6289 379.726 81.9447C381 92.5742 381.585 105.471 380.208 120.004C377.936 143.992 371.171 163.417 365.078 176.997C366.91 172.251 381.049 133.926 359.151 107.336C356.014 103.527 351.507 99.1935 345 95.3128C345.566 92.4198 346.049 89.3066 346.393 85.99C347.041 79.7333 347.061 74.0163 346.764 68.9978L346.763 68.9973Z" fill="#CC5520"/>
<path d="M324 56.7085C327.354 49.3548 332.837 39.4496 341.685 29.4372C352.249 17.4831 363.339 10.2083 371.026 5.9989C374.284 13.0073 377.955 22.8755 379.804 35.1165C382.357 52.0223 380.329 66.1204 378.317 74.9989C377.111 63.0058 369.498 52.6881 358.637 48.3774C346.722 43.6493 332.905 46.945 324 56.7085Z" fill="#CC5520"/>
<path d="M172.227 66C171.029 58.3636 170.215 47.5055 172.203 34.7551C174.613 19.2898 180.148 7.42934 184.374 0C191.032 4.16197 199.551 10.4567 207.825 19.6315C218.718 31.7094 224.708 43.8094 228 52.1113C219.719 41.3844 205.471 36.9914 192.938 41.12C181.911 44.752 173.87 54.4327 172.227 66H172.227Z" fill="#CC5520"/>
<path d="M252.451 371.435C232.1 396.017 223.089 420.687 219 435.001C229.858 415.452 260.543 366.241 307.779 361.932C311.058 361.633 314.466 361.545 318 361.715C315.686 355.127 313.469 347.975 311.483 340.283C310.303 335.712 309.291 331.278 308.419 327C295.221 333.566 272.808 346.844 252.451 371.434V371.435Z" fill="#CC5520"/>
<path d="M211.044 324.002C205.866 348.46 202.348 378.679 204.796 412.915C205.424 421.702 206.396 430.073 207.613 438.001C209.546 430.662 211.747 423.04 214.254 415.177C217.676 404.452 221.306 394.427 225 385.124C220.348 364.749 215.696 344.375 211.044 324.001V324.002Z" fill="#CC5520"/>
<path d="M229.116 258.256C214.744 232.17 200.372 206.084 186 179.997C193.323 193.416 201.836 200.857 207.888 205.056C245.469 231.13 301.454 210.809 330.504 200.231C345.152 194.897 356.454 189.295 363 185.844C346.965 210.951 330.929 236.058 314.894 261.166C305.241 264.143 290.384 267.506 272.098 266.933C253.47 266.349 238.624 261.912 229.116 258.256H229.116Z" fill="#EA9127"/>
<path d="M250.049 57.0001C251.632 62.2991 253.605 71.4723 252.111 82.6584C251.615 86.378 250.673 94.9039 245.274 103.492C241.045 110.22 237.777 112.384 230.077 120.306C225.63 124.88 219.555 131.643 213 140.789C220.395 143.793 229.053 146.514 238.866 148.207C272.105 153.942 299.817 144.655 314.847 138.062C316.898 135.231 318.948 132.399 321 129.567C306.835 121.316 287.97 107.899 270.37 86.7016C261.759 76.3314 255.135 66.1278 250.049 56.9996L250.049 57.0001Z" fill="#EA9127"/>
<path d="M251.589 320.231C234.308 331.105 213.566 323.29 210.1 321.924C209.956 329.674 209.964 337.631 210.147 345.786C210.669 369.076 212.555 390.878 215.276 411.003C222.555 389.97 232.788 366.263 247.381 341.592C252.836 332.37 258.423 323.822 264 315.927C262.912 314.619 261.825 313.311 260.738 312.003C258.433 314.886 255.445 317.804 251.589 320.231Z" fill="#EA9127"/>
<path d="M219 434.999C223.663 420.018 233.507 395.087 254.575 370.329C274.274 347.181 295.493 333.929 309 326.867C307.286 318.156 305.889 308.426 305.167 297.803C304.792 292.287 304.632 287.01 304.634 281.999C291.294 295.962 276.592 313.649 262.666 335.459C238.857 372.747 226.114 408.307 219 434.998V434.999Z" fill="#EA9127"/>
<path d="M186.238 0C183.969 4.09961 181.628 9.0021 179.574 14.6914C176.241 23.9217 174.708 32.3317 174 39C174.341 37.0264 176.219 27.252 184.267 22.2376C193.444 16.5201 207.019 19.2509 216 30.0038C211.623 23.6103 205.654 16.2043 197.665 9.02157C193.727 5.48009 189.863 2.50161 186.237 0L186.238 0Z" fill="#903518"/>
<path d="M371.29 5.9989C373.378 10.0533 375.512 14.9715 377.25 20.7084C380.108 30.1485 380.914 38.583 381 44.9989C380.858 43.3306 379.818 32.9988 371.45 27.3256C362.449 21.2225 348.57 22.9502 339 32.6345C343.537 27.0739 349.777 20.551 358.095 14.3725C362.718 10.9388 367.196 8.19458 371.291 5.9989H371.29Z" fill="#903518"/>
<path d="M314.567 261.137C326.712 242.093 338.856 223.048 351 204.003C340.245 215.782 318.249 236.579 283.852 248.773C261.545 256.68 241.674 258.257 228 258.196C238.201 262.099 254.379 266.862 274.646 267C291.329 267.114 305.065 264.054 314.567 261.137Z" fill="#CC5520"/>
</svg>
