<svg width="71" height="81" viewBox="0 0 71 81" fill="none" xmlns="http://www.w3.org/2000/svg">
<path d="M8.69674 10.541C6.29044 13.9818 2.73055 20.0156 1.00326 28.3002C-0.441309 35.2287 -0.0590534 41.1169 0.503072 44.9709C4.27657 47.6952 7.35433 48.2453 9.42612 48.2664C14.2589 48.3154 19.7391 45.5471 24.9797 45.4216C26.0637 45.3958 27.1803 45.4289 27.1803 45.4289C29.4586 45.4967 31.357 45.7394 32.7329 45.9673C31.5228 45.6293 12.3832 39.9709 8.43618 23.5809C7.19882 18.443 7.83279 13.8219 8.69674 10.541Z" fill="#EA9127"/>
<path d="M1.10962 47.485C1.97344 51.5575 3.9052 57.814 8.59528 63.9955C18.4695 77.0103 33.0839 79.826 36.934 80.4451C36.2893 76.7934 35.773 71.5676 36.5134 65.374C37.2572 59.1499 39.0045 54.1693 40.5 50.7624C33.7496 47.2809 28.4568 46.9155 24.8146 47.261C17.9644 47.9108 13.0275 51.4465 5.81392 49.4984C3.72177 48.9335 2.11673 48.0905 1.10971 47.4851L1.10962 47.485Z" fill="#EA9127"/>
<path d="M11.0959 66.8873C14.2616 66.7854 18.722 66.243 23.6276 64.2581C33.0484 60.4465 38.3428 53.6493 40.5 50.4863C39.7162 52.2824 38.9828 54.2408 38.3513 56.361C35.5411 65.7943 35.9574 74.3592 36.93 80.4452C30.6468 79.3428 21.968 76.7118 14.3056 70.0128C13.1334 68.9879 12.0667 67.9395 11.0959 66.8873Z" fill="#903518"/>
<path d="M8.53406 10.541C6.73916 13.1755 4.7084 16.7052 3.07324 21.1191C0.62941 27.7159 0.0595259 33.6141 0 37.654C0.995339 36.6281 1.99876 35.9827 2.8809 35.5643C9.85972 32.2535 18.2327 38.8778 18.863 39.3903C16.9362 37.9567 9.74101 32.2475 7.9665 22.1598C7.09985 17.2333 7.84564 13.0796 8.53415 10.5411L8.53406 10.541Z" fill="#F6D365"/>
<path d="M1.10971 47.1575C3.12062 49.476 7.45921 53.7886 14.2968 55.8343C27.7209 59.8503 39.0342 51.6141 40.5 50.5096C38.6426 53.339 34.4629 58.8788 27.0613 62.8458C20.4811 66.3727 14.4084 67.02 11.1283 67.1301C9.24288 65.0343 6.90098 62.006 4.86144 57.9786C2.75245 53.814 1.68207 49.9937 1.10962 47.1575H1.10971Z" fill="#CC5520"/>
<path d="M34.0967 0C33.2995 1.40272 32.2521 3.65467 31.8208 6.59154C31.4868 8.86646 31.6315 10.8107 31.8502 12.2055C33.327 11.685 34.9605 11.1791 36.7411 10.7286C38.678 10.2386 40.4977 9.88809 42.1644 9.63701C41.6285 8.28171 40.7358 6.46204 39.2379 4.57952C37.4347 2.31287 35.4769 0.863148 34.0966 0L34.0967 0Z" fill="#EA9127"/>
<path d="M68.6123 1.10962C67.2766 1.83988 65.389 3.06974 63.5448 5.04994C61.6699 7.06311 60.5588 9.0797 59.9178 10.4874C61.4976 10.8531 63.214 11.325 65.032 11.9378C66.8402 12.5473 68.4855 13.2075 69.9604 13.8699C70.3004 12.3834 70.6454 10.0857 70.3422 7.30728C70.0466 4.59655 69.248 2.47386 68.6124 1.10962H68.6123Z" fill="#EA9127"/>
<path d="M31.8167 14.3206C31.5966 16.5849 31.5141 19.3782 31.8421 22.5473C32.1915 25.9252 32.9113 28.8033 33.6475 31.0686C35.6156 26.5238 38.0514 23.6827 40.0131 21.8862C41.8024 20.2476 43.7828 18.942 44.5942 16.3377C45.2174 14.3374 44.8815 12.4364 44.4719 11.0959C42.7978 11.2654 40.9243 11.5515 38.9059 12.0215C36.1574 12.6615 33.7822 13.4932 31.8167 14.3206Z" fill="#E39334"/>
<path d="M46.3548 10.6655C46.6157 11.5519 46.9294 13.0192 46.7653 14.8245C46.7028 15.5123 46.5503 17.032 45.6982 18.6624C44.6217 20.7225 43.4809 20.9449 40.8774 23.9834C40.2095 24.7629 39.702 25.4282 39.3904 25.8496C43.1799 27.7741 46.9692 29.6986 50.7587 31.6232C52.5932 30.6378 61.0082 25.8778 62.4747 17.002C62.6864 15.7208 62.7825 14.1774 62.5809 12.4051C60.1845 11.6967 57.2164 11.0332 53.7788 10.7235C50.9938 10.4727 48.489 10.5072 46.3547 10.6657L46.3548 10.6655Z" fill="#F6D365"/>
<path d="M70.2268 15.1546C70.3802 16.4555 70.4699 17.8636 70.4579 19.3657C70.4138 24.8896 69.0122 29.4701 67.627 32.7329C67.6208 32.473 67.4949 29.4584 64.846 27.7387C62.319 26.0983 59.6485 27.0337 59.363 27.1393C60.4287 25.9491 61.8171 24.1135 62.8732 21.5968C64.4172 17.9177 64.4823 14.6143 64.3765 12.7603C66.3266 13.5584 68.2767 14.3565 70.2268 15.1546V15.1546Z" fill="#EA9127"/>
<path d="M34.3973 33.2876C37.0541 38.1117 39.711 42.9357 42.3679 47.7597C44.1027 48.427 46.7553 49.2186 50.0697 49.3559C53.5661 49.5007 56.4043 48.8595 58.2251 48.2977C61.1934 43.6505 64.1618 39.0034 67.1302 34.3563C66.1635 34.617 64.8956 34.9094 63.3925 35.1242C62.1247 35.3054 60.5718 35.4482 58.5334 35.4391C54.4789 35.4209 54.2672 34.8269 50.4887 34.7015C47.0876 34.5887 47.0706 35.0634 43.2072 34.8745C40.9063 34.762 39.1735 34.5085 37.6197 34.1705C36.3061 33.8847 35.2114 33.5581 34.3974 33.2877L34.3973 33.2876Z" fill="#F6D365"/>
<path d="M42.1518 50.4863C44.3752 53.1828 46.5986 55.8793 48.8219 58.5757C46.7607 61.5232 44.496 65.2446 42.451 69.7422C40.5702 73.8785 39.3088 77.7175 38.4465 81C37.5477 75.318 37.0839 67.1098 39.5641 57.8855C40.2996 55.1501 41.1983 52.6812 42.1517 50.4864L42.1518 50.4863Z" fill="#F6D365"/>
<path d="M56.3242 52.1506C53.5182 55.089 50.1761 59.1417 47.118 64.4185C43.6002 70.4881 41.6367 76.1437 40.5 80.438C44.6751 81.141 48.1035 81.0622 50.4564 80.8539C54.331 80.511 55.9164 79.7616 57.0602 78.9366C57.5465 78.5858 59.0437 77.5056 59.8878 75.7383C61.7025 71.939 58.8579 68.3985 57.2757 61.1397C56.824 59.0676 56.327 56.0123 56.3241 52.1506H56.3242Z" fill="#903518"/>
<path d="M48.8218 33.2876C47.8458 32.6793 46.5179 31.8842 44.8967 31.0075C44.0278 30.5377 43.3449 30.1906 42.6003 29.8127C41.5007 29.2549 40.0632 28.5428 38.3481 27.7397C38.1108 28.1843 37.7197 29.0662 37.7261 30.2293C37.7317 31.2496 38.0406 32.038 38.2533 32.4765C39.5782 32.4302 41.0172 32.4352 42.5534 32.5203C44.8829 32.6494 46.9855 32.9378 48.8219 33.2877L48.8218 33.2876Z" fill="#532322"/>
<path d="M52.1507 33.8424C53.9927 32.6962 56.0133 31.5433 58.212 30.4317C59.7958 29.6309 61.3317 28.9223 62.8061 28.2944C63.0089 28.8239 63.3537 29.9281 63.2143 31.3346C63.1054 32.433 62.7464 33.2585 62.4992 33.7291C61.1937 33.5665 59.7622 33.4561 58.2211 33.437C55.9694 33.409 53.9302 33.5816 52.1507 33.8424Z" fill="#532322"/>
<path d="M44.3835 49.9314C45.9066 50.3399 47.8649 50.7168 50.1582 50.799C52.4787 50.8822 54.4775 50.64 56.0342 50.3356C54.0042 52.605 51.9743 54.8744 49.9444 57.1437C48.0908 54.7396 46.2371 52.3356 44.3835 49.9314Z" fill="#532322"/>
<path d="M52.1507 33.8423C53.1507 33.2208 54.509 32.4122 56.1601 31.5329C57.0451 31.0616 57.7389 30.7166 58.4954 30.3412C59.6124 29.7868 61.0717 29.0821 62.8091 28.2944C63.0076 28.8223 63.3235 29.8631 63.2295 31.1955C63.1472 32.3644 62.7858 33.244 62.5447 33.73C61.2529 33.5745 59.8457 33.469 58.3373 33.4477C56.0501 33.4156 53.9727 33.5834 52.1509 33.8424L52.1507 33.8423Z" fill="#532322"/>
<path d="M33.6184 31.0685C32.5478 27.5268 31.6733 23.1618 31.6254 18.1573C31.6124 16.8108 31.6605 15.523 31.7535 14.2994C33.6637 13.5069 35.9501 12.7121 38.5802 12.0852C40.6912 11.582 42.6458 11.2769 44.3836 11.0959C44.0233 11.8563 43.4019 13.0245 42.4089 14.284C39.5348 17.9295 36.6935 18.3511 34.8329 20.4979C33.4505 22.0931 32.2507 25.055 33.6185 31.0686L33.6184 31.0685Z" fill="#CC5520"/>
<path d="M59.6405 23.8561C57.9642 23.4778 55.1047 22.5916 52.2943 20.3485C47.9244 16.8608 46.4899 12.3406 46.048 10.666C48.3119 10.5005 51.0136 10.4679 54.0385 10.7637C57.3689 11.0894 60.2491 11.7308 62.5849 12.4106C62.7222 13.6189 62.7705 15.2115 62.4617 17.0354C61.9225 20.2189 60.5597 22.5454 59.6405 23.856V23.8561Z" fill="#CC5520"/>
<path d="M64.1274 12.7603C66.1593 13.5584 68.1912 14.3565 70.2232 15.1546C70.4588 17.1204 70.5671 19.5053 70.3125 22.1929C69.8922 26.6291 68.6411 30.2214 67.5143 32.7329C67.8532 31.8552 70.468 24.7676 66.4183 19.8503C65.8381 19.1458 65.0046 18.3445 63.8014 17.6268C63.9061 17.0918 63.9954 16.5161 64.0589 15.9027C64.1787 14.7457 64.1825 13.6884 64.1275 12.7603L64.1274 12.7603Z" fill="#CC5520"/>
<path d="M59.9178 10.4874C60.538 9.12749 61.552 7.29571 63.1882 5.4441C65.1419 3.2334 67.1926 1.88807 68.6142 1.10962C69.2168 2.40569 69.8957 4.23063 70.2377 6.49438C70.7098 9.62079 70.3346 12.228 69.9626 13.8699C69.7397 11.652 68.3318 9.74391 66.3231 8.94673C64.1197 8.07236 61.5645 8.68184 59.9178 10.4874Z" fill="#CC5520"/>
<path d="M31.8501 12.2055C31.6286 10.7933 31.4781 8.78526 31.8457 6.42731C32.2914 3.5673 33.3151 1.37392 34.0966 0C35.3279 0.76968 36.9032 1.93377 38.4334 3.63048C40.4478 5.86406 41.5556 8.10174 42.1644 9.63701C40.633 7.65328 37.9981 6.84087 35.6802 7.60437C33.6411 8.27606 32.1541 10.0663 31.8502 12.2055H31.8501Z" fill="#CC5520"/>
<path d="M46.6861 68.6899C42.9226 73.2359 41.2562 77.7983 40.5 80.4453C42.508 76.83 48.1827 67.7295 56.918 66.9326C57.5244 66.8773 58.1546 66.8611 58.8082 66.8925C58.3803 65.6742 57.9702 64.3515 57.6031 62.929C57.3849 62.0838 57.1976 61.2637 57.0364 60.4727C54.5956 61.6868 50.4509 64.1423 46.6861 68.6898V68.6899Z" fill="#CC5520"/>
<path d="M39.0286 59.9178C38.071 64.4409 37.4205 70.0294 37.8731 76.3608C37.9893 77.9857 38.1691 79.5338 38.3941 80.9999C38.7516 79.6428 39.1585 78.2331 39.6223 76.7791C40.2551 74.7957 40.9263 72.9417 41.6096 71.2212C40.7492 67.4533 39.8889 63.6854 39.0286 59.9177V59.9178Z" fill="#CC5520"/>
<path d="M42.3708 47.7602C39.713 42.936 37.0552 38.1119 34.3973 33.2876C35.7516 35.7692 37.3259 37.1453 38.4451 37.9218C45.3949 42.7438 55.7484 38.9857 61.1206 37.0294C63.8295 36.043 65.9195 35.0071 67.1302 34.3689C64.1647 39.012 61.1993 43.6551 58.2338 48.2982C56.4487 48.8489 53.7012 49.4707 50.3194 49.3647C46.8747 49.2568 44.1291 48.4362 42.3708 47.7602H42.3708Z" fill="#EA9127"/>
<path d="M46.2418 10.5411C46.5346 11.5211 46.8995 13.2175 46.6233 15.2861C46.5314 15.974 46.3574 17.5507 45.3589 19.139C44.5767 20.3831 43.9724 20.7833 42.5484 22.2483C41.7261 23.0943 40.6026 24.3449 39.3904 26.0363C40.758 26.5919 42.3591 27.095 44.1739 27.4082C50.3207 28.4687 55.4456 26.7512 58.225 25.532C58.6043 25.0084 58.9836 24.4847 59.363 23.961C56.7434 22.4351 53.2547 19.954 49.9999 16.0338C48.4074 14.1161 47.1824 12.2291 46.2419 10.541L46.2418 10.5411Z" fill="#EA9127"/>
<path d="M46.5268 59.2202C43.3309 61.2312 39.4951 59.786 38.8541 59.5334C38.8276 60.9666 38.8289 62.438 38.8628 63.9461C38.9595 68.2532 39.3082 72.2851 39.8114 76.007C41.1575 72.1172 43.0498 67.7331 45.7486 63.1705C46.7575 61.4652 47.7905 59.8844 48.8219 58.4243C48.6208 58.1825 48.4197 57.9406 48.2186 57.6987C47.7925 58.2318 47.2399 58.7715 46.5268 59.2202Z" fill="#EA9127"/>
<path d="M40.5 80.4452C41.3624 77.6748 43.1828 73.0642 47.0789 68.4857C50.7219 64.205 54.646 61.7542 57.1438 60.4482C56.8269 58.8373 56.5685 57.038 56.435 55.0734C56.3656 54.0533 56.336 53.0773 56.3363 52.1506C53.8694 54.7329 51.1506 58.0038 48.5751 62.0372C44.1721 68.9328 41.8156 75.509 40.5 80.4451V80.4452Z" fill="#EA9127"/>
<path d="M34.4412 0C34.0216 0.758146 33.5887 1.66477 33.2089 2.71691C32.5925 4.42388 32.3091 5.97914 32.1781 7.21233C32.2411 6.84734 32.5884 5.03976 34.0767 4.11243C35.7739 3.05508 38.2844 3.56009 39.9452 5.54864C39.1357 4.36629 38.032 2.99668 36.5545 1.66837C35.8262 1.01344 35.1117 0.462626 34.4412 0L34.4412 0Z" fill="#903518"/>
<path d="M68.6632 1.10962C69.0493 1.8594 69.444 2.76894 69.7653 3.82986C70.2939 5.57564 70.4429 7.13544 70.4589 8.32195C70.4327 8.01342 70.2404 6.10275 68.6928 5.05359C67.0281 3.92495 64.4616 4.24446 62.6918 6.03538C63.5307 5.00705 64.6848 3.80076 66.223 2.65817C67.0779 2.02317 67.9062 1.51567 68.6633 1.10962H68.6632Z" fill="#903518"/>
<path d="M58.1732 48.2919C60.4192 44.77 62.6651 41.248 64.9109 37.7261C62.9218 39.9043 58.8542 43.7504 52.493 46.0054C48.3679 47.4676 44.693 47.7593 42.1644 47.7481C44.0508 48.4698 47.0426 49.3507 50.7906 49.3762C53.8758 49.3972 56.416 48.8314 58.1732 48.2919Z" fill="#CC5520"/>
</svg>
