<svg width="93" height="117" viewBox="0 0 93 117" fill="none" xmlns="http://www.w3.org/2000/svg">
<path d="M4.27838 16.4367C3.53346 19.2232 2.73975 23.5917 3.32129 28.8663C3.77188 32.952 4.90084 36.2494 5.90966 38.563C8.22868 36.9953 10.8253 35.3818 13.7015 33.7979C16.8302 32.0749 19.8191 30.6461 22.5883 29.4585C21.0489 27.3566 18.6823 24.6127 15.2407 22.0337C11.0972 18.9283 7.05563 17.3058 4.27823 16.4367L4.27838 16.4367Z" fill="#EA9127"/>
<path d="M64.4788 2.75565C62.4986 4.62246 59.7896 7.60285 57.495 11.8614C55.162 16.1909 54.1518 20.181 53.6793 22.9055C56.5771 22.824 59.7592 22.8643 63.1806 23.1026C66.5835 23.3394 69.7277 23.7378 72.5781 24.2167C72.4943 21.4921 72.0524 17.3619 70.2723 12.6933C68.5357 8.13841 66.1949 4.82792 64.4789 2.75561L64.4788 2.75565Z" fill="#EA9127"/>
<path d="M6.80759 42.237C7.45035 46.253 8.57019 51.1215 10.5699 56.4547C12.7011 62.1393 15.2469 66.792 17.5442 70.3772C18.894 61.6269 21.8229 55.6119 24.4039 51.618C26.7581 47.9749 29.5933 44.8217 29.8196 39.9505C29.9934 36.2089 28.553 33.0728 27.2388 30.9395C24.4198 31.9894 21.3086 33.331 18.03 35.0562C13.5655 37.4055 9.83312 39.9175 6.80759 42.237Z" fill="#E39334"/>
<path d="M30.3011 29.3421C31.153 30.7572 32.3588 33.1533 32.8909 36.3499C33.0937 37.5679 33.5168 40.2654 32.78 43.4705C31.8492 47.5203 29.9766 48.4205 26.8469 54.8528C26.0441 56.503 25.467 57.883 25.1185 58.7528C32.5427 60.3685 39.9668 61.9845 47.3911 63.6004C50.1186 61.0669 62.5218 49.0303 61.0465 33.0157C60.8336 30.7039 60.3021 27.9911 59.1524 25.0167C54.6873 24.8747 49.2537 25.0686 43.168 26.0868C38.2376 26.9118 33.9208 28.1037 30.301 29.3424L30.3011 29.3421Z" fill="#F6D365"/>
<path d="M73.6193 26.3173C74.4726 28.4981 75.2642 30.893 75.9224 33.4966C78.3431 43.0706 77.9891 51.6267 77.0681 57.8962C76.9399 57.4496 75.3595 52.2922 70.0006 50.5152C64.8884 48.82 60.6923 51.6451 60.2462 51.9567C61.5514 49.4166 63.1232 45.6141 63.8123 40.7838C64.8199 33.7224 63.4393 27.9793 62.4183 24.8204C66.152 25.3194 69.8856 25.8184 73.6194 26.3174L73.6193 26.3173Z" fill="#EA9127"/>
<path d="M19.8439 73.8755C26.6197 81.0185 33.3955 88.1613 40.1714 95.3041C43.4737 95.674 48.4194 95.8442 54.2141 94.5837C60.3271 93.2537 64.9463 90.8618 67.8415 89.0672C70.8751 79.6876 73.9088 70.3081 76.9424 60.9287C75.3883 61.8166 73.3276 62.8953 70.8248 63.9463C68.7139 64.8328 66.0925 65.7817 62.5628 66.6873C55.5417 68.4884 54.9072 67.5568 48.3151 69.0477C42.3815 70.3899 42.5667 71.2187 35.799 72.6381C31.7685 73.4835 28.6568 73.8284 25.8166 73.9461C23.4153 74.0454 21.3743 73.9754 19.8441 73.8756L19.8439 73.8755Z" fill="#F6D365"/>
<path d="M44.7935 67.3556C42.8305 66.7446 40.1743 65.9695 36.974 65.1859C35.2588 64.7661 33.9207 64.4745 32.4619 64.1573C30.308 63.6896 27.4998 63.1077 24.1703 62.494C23.9609 63.3702 23.6831 65.0723 24.2198 67.0811C24.6906 68.8433 25.5812 70.0674 26.1475 70.7296C28.418 70.0507 30.9092 69.4089 33.6048 68.8618C37.6922 68.0321 41.4592 67.5805 44.7937 67.3557L44.7935 67.3556Z" fill="#532322"/>
<path d="M50.8017 66.8112C53.4695 63.9961 56.4433 61.0888 59.7438 58.1723C62.1212 56.0713 64.4574 54.1515 66.7238 52.3991C67.3139 53.2233 68.4094 54.9773 68.804 57.4729C69.1121 59.422 68.8643 61.012 68.6495 61.9377C66.3179 62.2467 63.792 62.7026 61.1179 63.3662C57.2108 64.3355 53.7617 65.5557 50.8017 66.8112Z" fill="#532322"/>
<path d="M44.6397 98.1489C47.4586 98.167 51.0162 97.9338 55.0198 97.0395C59.0711 96.1345 62.4188 94.812 64.9737 93.5819C62.4883 98.4247 60.0031 103.267 57.5178 108.11C53.2251 104.79 48.9323 101.469 44.6397 98.1489Z" fill="#532322"/>
<path d="M50.8016 66.811C52.2504 65.284 54.2341 63.2715 56.6926 61.0044C58.0103 59.7892 59.0543 58.8789 60.1932 57.8877C61.8745 56.4239 64.0799 54.5454 66.7289 52.3978C67.3109 53.221 68.3278 54.8784 68.7675 57.2255C69.1534 59.2845 68.9258 60.9691 68.7286 61.9187C66.424 62.2337 63.9424 62.6872 61.3238 63.3322C57.3532 64.3105 53.8359 65.5397 50.802 66.8111L50.8016 66.811Z" fill="#532322"/>
<path d="M17.4938 70.3902C14.0413 64.7483 10.5558 57.5939 8.21085 48.9597C7.57989 46.6365 7.08082 44.3873 6.68872 42.229C9.63436 39.9948 13.2298 37.5866 17.4956 35.3135C20.9192 33.4891 24.1621 32.0779 27.086 30.9794C26.8066 32.4574 26.2599 34.7588 25.1115 37.3861C21.7882 44.9906 17.0644 47.0041 14.8166 51.5582C13.1466 54.942 12.4101 60.6073 17.494 70.3903L17.4938 70.3902Z" fill="#CC5520"/>
<path d="M59.2424 46.1523C56.172 46.2557 50.8255 46.0154 44.9508 43.4061C35.816 39.3488 31.2918 32.179 29.7705 29.4823C33.6114 28.1728 38.2697 26.8953 43.6352 26.0396C49.5428 25.0975 54.8143 24.9052 59.1617 25.0252C59.9454 27.053 60.7487 29.7858 61.0389 33.08C61.5454 38.83 60.2397 43.4698 59.2423 46.1522L59.2424 46.1523Z" fill="#CC5520"/>
<path d="M61.9875 24.9315C65.8628 25.3935 69.7379 25.8556 73.6131 26.3176C74.9093 29.6111 76.1746 33.6872 76.9489 38.4508C78.2271 46.3138 77.687 53.0924 76.8732 57.9457C77.0626 56.2744 78.3816 42.8336 69.1545 36.1591C67.8326 35.2029 66.0289 34.1936 63.6233 33.4962C63.5626 32.5235 63.4568 31.4873 63.2895 30.3978C62.9736 28.3424 62.5023 26.512 61.9877 24.9316L61.9875 24.9315Z" fill="#CC5520"/>
<path d="M53.6793 22.9056C54.1374 20.2731 55.0632 16.6465 57.0564 12.7043C59.4362 7.99762 62.3752 4.74375 64.4821 2.75476C66.1101 4.72413 68.1092 7.57373 69.724 11.3346C71.9538 16.5287 72.4833 21.2077 72.5819 24.2158C71.1939 20.4804 67.8963 17.8165 64.0617 17.3456C59.8555 16.8292 55.7114 19.0383 53.6793 22.9056Z" fill="#CC5520"/>
<path d="M5.90946 38.563C4.88798 36.2206 3.72013 32.8155 3.29001 28.571C2.76825 23.4228 3.54746 19.1664 4.27819 16.4367C6.75574 17.2115 10.0066 18.5129 13.4202 20.7559C17.914 23.7086 20.8414 27.0782 22.5883 29.4585C19.0429 26.7196 14.1183 26.5054 10.4544 28.8736C7.23114 30.9571 5.4683 34.7257 5.90962 38.563L5.90946 38.563Z" fill="#CC5520"/>
<path d="M40.1767 95.3036C33.3992 88.1609 26.6216 81.0183 19.8439 73.8755C23.3081 77.5556 26.653 79.2242 28.9397 80.0614C43.1399 85.2601 59.3488 74.0804 67.7565 68.2685C71.996 65.338 75.1427 62.6016 76.9481 60.9505C73.9177 70.3217 70.8873 79.6929 67.8569 89.0641C65.0182 90.8234 60.5471 93.1408 54.6501 94.4861C48.6432 95.8564 43.5234 95.6781 40.1766 95.3036L40.1767 95.3036Z" fill="#EA9127"/>
<path d="M30.0494 29.178C30.9988 30.7406 32.3967 33.5098 32.8539 37.2126C33.006 38.4439 33.4177 41.2497 32.4085 44.4481C31.618 46.9536 30.7536 47.919 28.9528 51.0965C27.913 52.9312 26.535 55.6022 25.2029 59.0757C27.8194 59.4185 30.8162 59.565 34.0966 59.2863C45.2077 58.3423 53.2954 53.0552 57.5517 49.6902C57.9711 48.613 58.3904 47.5359 58.8099 46.4585C53.5893 45.0034 46.4338 42.2889 39.0322 36.9797C35.4109 34.3825 32.4393 31.6724 30.0495 29.1778L30.0494 29.178Z" fill="#EA9127"/>
<path d="M4.87416 16.2815C4.49103 17.7825 4.15206 19.5463 3.97066 21.5378C3.67615 24.7688 3.88888 27.5869 4.21974 29.779C4.16374 29.1193 3.94742 25.8359 6.10252 23.5592C8.55997 20.9633 13.1305 20.702 16.9019 23.3908C14.9674 21.7116 12.4392 19.8416 9.28338 18.212C7.72762 17.4084 6.2429 16.7786 4.87401 16.2815L4.87416 16.2815Z" fill="#903518"/>
<path d="M64.5667 2.7323C65.5733 3.85467 66.6672 5.24939 67.7025 6.93916C69.4058 9.71979 70.3685 12.3503 70.9325 14.3953C70.7477 13.8735 69.5515 10.6557 66.4005 9.54053C63.0111 8.34083 58.7164 10.0535 56.4648 13.9511C57.451 11.7933 58.902 9.18519 61.0461 6.51368C62.2376 5.02897 63.4408 3.77682 64.5669 2.73227L64.5667 2.7323Z" fill="#903518"/>
<path d="M67.7498 89.0828C70.0426 81.9762 72.3352 74.8693 74.6278 67.7625C72.172 72.4291 66.8748 80.92 56.8917 87.6954C50.4177 92.0892 44.1934 94.2547 39.8148 95.3782C43.4038 95.7738 48.9766 95.9451 55.4707 94.2952C60.8165 92.9371 64.9544 90.8103 67.7498 89.0828Z" fill="#CC5520"/>
</svg>
