<svg width="127" height="146" viewBox="0 0 127 146" fill="none" xmlns="http://www.w3.org/2000/svg">
<rect x="5" y="88" width="113" height="39" fill="white"/>
<path d="M15.6756 19C11.3383 25.2019 4.92173 36.0777 1.80834 51.0103C-0.795446 63.4987 -0.106442 74.1121 0.906772 81.0588C7.70838 85.9692 13.256 86.9609 16.9903 86.9988C25.7013 87.0871 35.579 82.0973 45.0252 81.8712C46.979 81.8247 48.9917 81.8844 48.9917 81.8844C53.0982 82.0066 56.52 82.4441 59 82.8548C56.8188 82.2455 22.3204 72.0465 15.2059 42.504C12.9756 33.2431 14.1184 24.9138 15.6756 19Z" fill="#EA9127"/>
<path d="M2 85.5903C3.55702 92.9308 7.03895 104.208 15.4927 115.35C33.2907 138.809 59.6327 143.884 66.5723 145C65.4103 138.418 64.4798 128.998 65.8142 117.835C67.1549 106.616 70.3044 97.6387 73 91.4979C60.8325 85.2224 51.2924 84.5639 44.7274 85.1866C32.3803 86.3578 23.4816 92.7308 10.4794 89.2195C6.70832 88.2013 3.81529 86.6818 2.00016 85.5905L2 85.5903Z" fill="#EA9127"/>
<path d="M20 120.562C25.7062 120.379 33.7458 119.401 42.588 115.823C59.5686 108.953 69.1117 96.7011 73 91C71.5872 94.2373 70.2653 97.7674 69.127 101.589C64.0617 118.592 64.812 134.03 66.5652 145C55.24 143.013 39.5967 138.271 25.7854 126.196C23.6725 124.349 21.7499 122.459 20 120.562Z" fill="#903518"/>
<path d="M15.3824 19C12.1471 23.7485 8.48674 30.1108 5.53942 38.0667C1.13449 49.9572 0.107294 60.5885 0 67.8703C1.79407 66.0211 3.60271 64.8578 5.19274 64.1037C17.7718 58.1361 32.864 70.0763 34 71C30.5269 68.4158 17.5579 58.1252 14.3594 39.9425C12.7973 31.0626 14.1415 23.5758 15.3825 19.0002L15.3824 19Z" fill="#F6D365"/>
<path d="M2.00016 85C5.62476 89.179 13.4449 96.9524 25.7694 100.64C49.9661 107.878 70.3578 93.0329 73 91.0421C69.6521 96.142 62.1182 106.127 48.7771 113.278C36.9165 119.635 25.9706 120.802 20.0584 121C16.6599 117.222 12.4387 111.764 8.76255 104.505C4.96115 96.9982 3.03183 90.1122 2 85H2.00016Z" fill="#CC5520"/>
<path d="M61.4583 0C60.0213 2.52837 58.1334 6.58744 57.356 11.881C56.754 15.9815 57.0148 19.4859 57.4091 22C60.0709 21.0619 63.0152 20.1499 66.2247 19.338C69.716 18.4548 72.9959 17.823 76 17.3704C75.0341 14.9275 73.425 11.6476 70.7252 8.25445C67.4749 4.16887 63.9459 1.5558 61.4581 0L61.4583 0Z" fill="#EA9127"/>
<path d="M123.672 2C121.264 3.31627 117.862 5.53305 114.538 9.10231C111.158 12.731 109.155 16.3658 108 18.9031C110.848 19.5623 113.941 20.4129 117.218 21.5174C120.477 22.616 123.443 23.8061 126.102 25C126.714 22.3207 127.336 18.179 126.79 13.1711C126.257 8.28508 124.817 4.459 123.672 2H123.672Z" fill="#EA9127"/>
<path d="M57.3486 25.8123C56.9519 29.8937 56.8032 34.9284 57.3943 40.6407C58.0241 46.7293 59.3215 51.917 60.6485 56C64.1959 47.8082 68.5864 42.6872 72.1223 39.4491C75.3475 36.4955 78.9171 34.1422 80.3797 29.4481C81.503 25.8425 80.8975 22.4161 80.1593 20C77.1417 20.3055 73.7647 20.8211 70.1267 21.6683C65.1727 22.8219 60.8913 24.3209 57.3486 25.8123Z" fill="#E39334"/>
<path d="M83.5532 19.2244C84.0234 20.822 84.5889 23.4669 84.293 26.7208C84.1804 27.9606 83.9055 30.6999 82.3696 33.6386C80.4292 37.3519 78.3731 37.7527 73.6803 43.2296C72.4764 44.6346 71.5617 45.8337 71 46.5933C77.8304 50.0621 84.6607 53.531 91.4911 57C94.7977 55.2239 109.965 46.6441 112.609 30.6458C112.99 28.3364 113.163 25.5545 112.8 22.36C108.481 21.0831 103.131 19.8871 96.9347 19.329C91.9147 18.8769 87.3999 18.9391 83.553 19.2247L83.5532 19.2244Z" fill="#F6D365"/>
<path d="M126.582 27.3157C126.858 29.6606 127.02 32.1986 126.998 34.9062C126.919 44.8627 124.392 53.1189 121.896 59C121.884 58.5317 121.657 53.0978 116.883 49.9982C112.328 47.0414 107.515 48.7275 107 48.9178C108.921 46.7726 111.423 43.464 113.327 38.9276C116.11 32.2962 116.227 26.3419 116.037 23C119.552 24.4386 123.067 25.8772 126.582 27.3158V27.3157Z" fill="#EA9127"/>
<path d="M62 60C66.7889 68.6953 71.5777 77.3904 76.3668 86.0856C79.4938 87.2883 84.275 88.7151 90.249 88.9626C96.5513 89.2236 101.667 88.0678 104.949 87.0553C110.299 78.6788 115.65 70.3026 121 61.9263C119.258 62.3962 116.972 62.9232 114.263 63.3104C111.978 63.6371 109.179 63.8945 105.505 63.878C98.1965 63.8452 97.815 62.7746 91.0043 62.5485C84.8739 62.3452 84.8434 63.2009 77.8796 62.8603C73.7324 62.6575 70.6089 62.2007 67.8083 61.5915C65.4406 61.0762 63.4674 60.4876 62.0002 60.0002L62 60Z" fill="#F6D365"/>
<path d="M75.9774 91C79.9849 95.8604 83.9925 100.721 88 105.581C84.2847 110.894 80.2027 117.601 76.5166 125.708C73.1266 133.164 70.8529 140.083 69.2986 146C67.6786 135.758 66.8426 120.963 71.3132 104.337C72.6388 99.4063 74.2586 94.9563 75.9772 91.0002L75.9774 91Z" fill="#F6D365"/>
<path d="M101.523 94C96.4649 99.2963 90.441 106.601 84.9287 116.112C78.5881 127.053 75.0489 137.247 73 144.987C80.5254 146.254 86.705 146.112 90.9461 145.737C97.93 145.119 100.788 143.768 102.849 142.281C103.726 141.648 106.425 139.702 107.946 136.516C111.217 129.668 106.09 123.286 103.238 110.202C102.424 106.468 101.528 100.961 101.523 94H101.523Z" fill="#903518"/>
<path d="M87.9998 59.9999C86.2407 58.9034 83.8472 57.4702 80.925 55.89C79.3588 55.0432 78.1279 54.4176 76.7857 53.7363C74.8038 52.7309 72.2127 51.4475 69.1212 50C68.6936 50.8013 67.9887 52.3909 68.0001 54.4873C68.0102 56.3263 68.567 57.7475 68.9505 58.5378C71.3385 58.4545 73.9322 58.4634 76.7012 58.6168C80.9 58.8495 84.6899 59.3693 88 60L87.9998 59.9999Z" fill="#532322"/>
<path d="M94 61C97.3201 58.934 100.962 56.856 104.925 54.8524C107.78 53.4089 110.548 52.1317 113.206 51C113.572 51.9544 114.193 53.9447 113.942 56.4797C113.745 58.4597 113.098 59.9475 112.653 60.7958C110.3 60.5028 107.719 60.3037 104.942 60.2693C100.883 60.2188 97.2076 60.5299 94 61Z" fill="#532322"/>
<path d="M80 90C82.7452 90.7362 86.275 91.4157 90.4086 91.5639C94.5913 91.7139 98.1941 91.2772 101 90.7286C97.341 94.8191 93.6821 98.9096 90.0232 103C86.6821 98.6667 83.3409 94.3334 80 90Z" fill="#532322"/>
<path d="M94 60.9998C95.8025 59.8796 98.2507 58.4221 101.227 56.8372C102.822 55.9877 104.073 55.3659 105.436 54.6893C107.449 53.6899 110.08 52.4197 113.211 51C113.569 51.9514 114.139 53.8274 113.969 56.2291C113.821 58.336 113.169 59.9214 112.735 60.7974C110.406 60.5172 107.87 60.3269 105.151 60.2886C101.028 60.2308 97.284 60.5332 94.0003 61L94 60.9998Z" fill="#532322"/>
<path d="M60.5961 55.9998C58.6664 49.616 57.0901 41.7484 57.0037 32.7279C56.9805 30.3009 57.067 27.9796 57.2347 25.7742C60.6777 24.3456 64.799 22.913 69.5397 21.783C73.3446 20.8761 76.8677 20.3262 80 20C79.3507 21.3705 78.2307 23.4762 76.4407 25.7464C71.2603 32.3173 66.1388 33.0773 62.7852 36.9468C60.2935 39.822 58.1309 45.1607 60.5962 56L60.5961 55.9998Z" fill="#CC5520"/>
<path d="M107.5 43C104.479 42.3181 99.3245 40.7208 94.2589 36.6778C86.3822 30.3912 83.7966 22.2438 83 19.2252C87.0806 18.927 91.9504 18.8683 97.4027 19.4014C103.406 19.9884 108.597 21.1446 112.807 22.3699C113.055 24.5479 113.142 27.4185 112.585 30.706C111.613 36.4441 109.157 40.6375 107.5 42.9998V43Z" fill="#CC5520"/>
<path d="M115.588 23C119.25 24.4386 122.913 25.8772 126.575 27.3158C127 30.859 127.195 35.1578 126.736 40.0021C125.978 47.9982 123.723 54.4731 121.692 59C122.303 57.418 127.016 44.6428 119.717 35.7795C118.671 34.5098 117.169 33.0654 115 31.7718C115.189 30.8075 115.35 29.7697 115.464 28.6642C115.68 26.5787 115.687 24.673 115.588 23.0002L115.588 23Z" fill="#CC5520"/>
<path d="M108 18.9032C109.118 16.452 110.946 13.1502 113.895 9.81278C117.416 5.82806 121.113 3.40313 123.675 2C124.761 4.33612 125.985 7.62552 126.601 11.7059C127.452 17.3411 126.776 22.0405 126.105 25C125.704 21.0023 123.166 17.563 119.545 16.1261C115.574 14.5501 110.968 15.6487 108 18.9032Z" fill="#CC5520"/>
<path d="M57.4089 22C57.0096 19.4545 56.7384 15.8352 57.4008 11.585C58.2042 6.42994 60.0494 2.47645 61.4581 0C63.6774 1.38732 66.5169 3.48556 69.2751 6.54383C72.906 10.5698 74.9026 14.6031 76 17.3704C73.2397 13.7948 68.4903 12.3305 64.3125 13.7066C60.6371 14.9173 57.9567 18.1442 57.409 22H57.4089Z" fill="#CC5520"/>
<path d="M84.1503 123.811C77.3666 132.005 74.363 140.229 73 145C76.6193 138.484 86.8478 122.08 102.593 120.644C103.686 120.544 104.822 120.515 106 120.572C105.229 118.376 104.49 115.992 103.828 113.427C103.434 111.904 103.097 110.426 102.806 109C98.407 111.188 90.9361 115.615 84.1503 123.811V123.811Z" fill="#CC5520"/>
<path d="M70.3479 108C68.6218 116.153 67.4492 126.226 68.265 137.638C68.4746 140.567 68.7987 143.357 69.2042 146C69.8487 143.554 70.582 141.013 71.418 138.392C72.5586 134.817 73.7684 131.475 75 128.374C73.4492 121.583 71.8985 114.791 70.3479 108V108Z" fill="#CC5520"/>
<path d="M76.3721 86.0864C71.5815 77.391 66.7908 68.6956 62 60C64.4412 64.473 67.2788 66.9535 69.296 68.3531C81.8229 77.0444 100.485 70.2707 110.168 66.7445C115.051 64.9666 118.818 63.0994 121 61.949C115.655 70.3181 110.31 78.6871 104.965 87.0561C101.747 88.0487 96.7947 89.1695 90.6992 88.9786C84.4902 88.784 79.5413 87.3049 76.372 86.0864H76.3721Z" fill="#EA9127"/>
<path d="M83.3495 19.0002C83.8772 20.7665 84.5349 23.8242 84.0371 27.5529C83.8715 28.7928 83.5578 31.6348 81.7581 34.4976C80.3482 36.7401 79.2589 37.4615 76.6922 40.1021C75.2101 41.6268 73.185 43.881 71 46.9298C73.465 47.9312 76.3511 48.8381 79.6221 49.4025C90.7016 51.3142 99.939 48.2183 104.949 46.0208C105.633 45.077 106.316 44.1331 107 43.189C102.278 40.4388 95.9901 35.9666 90.1233 28.9007C87.2529 25.4439 85.0449 22.0427 83.3497 19L83.3495 19.0002Z" fill="#EA9127"/>
<path d="M83.8632 106.742C78.1026 110.367 71.1886 107.762 70.0332 107.307C69.9855 109.89 69.9879 112.542 70.0489 115.261C70.2232 123.024 70.8517 130.291 71.7588 137C74.1851 129.989 77.596 122.087 82.4605 113.863C84.2789 110.789 86.1409 107.94 88 105.308C87.6375 104.872 87.275 104.436 86.9125 104C86.1445 104.961 85.1485 105.934 83.8632 106.742Z" fill="#EA9127"/>
<path d="M73 145C74.5544 140.007 77.8356 131.696 84.8583 123.443C91.4247 115.728 98.4978 111.31 103 108.956C102.429 106.053 101.963 102.809 101.722 99.2682C101.597 97.4294 101.544 95.6704 101.544 94C97.0979 98.6545 92.1973 104.55 87.5551 111.82C79.6189 124.249 75.3714 136.103 73 145V145Z" fill="#EA9127"/>
<path d="M62.0792 0C61.3229 1.36653 60.5426 3.0007 59.8579 4.89714C58.747 7.97391 58.2361 10.7772 58 13C58.1136 12.3421 58.7396 9.08401 61.4222 7.41254C64.4812 5.50669 69.0064 6.41695 72 10.0012C70.5409 7.8701 68.5514 5.40142 65.8883 3.00719C64.5755 1.8267 63.2877 0.83387 62.0791 0L62.0792 0Z" fill="#903518"/>
<path d="M123.763 2C124.459 3.35146 125.171 4.99088 125.75 6.90316C126.703 10.0499 126.971 12.8613 127 15C126.953 14.4439 126.606 11 123.817 9.10889C120.816 7.07455 116.19 7.65045 113 10.8785C114.512 9.025 116.592 6.85069 119.365 4.79121C120.906 3.64664 122.399 2.73189 123.764 2H123.763Z" fill="#903518"/>
<path d="M104.855 87.0445C108.904 80.6965 112.952 74.3482 117 68C113.415 71.9262 106.083 78.8587 94.6171 82.9231C87.1817 85.5589 80.5578 86.0846 76 86.0644C79.4002 87.3652 84.7929 88.953 91.5484 88.999C97.1095 89.0369 101.688 88.0171 104.855 87.0445Z" fill="#CC5520"/>
</svg>
