<svg width="108" height="20" viewBox="0 0 108 20" fill="none" xmlns="http://www.w3.org/2000/svg">
<path d="M107.746 0.685547H83.5934V20.0076H107.746V0.685547Z" fill="#532322"/>
<path d="M5.65849 11.1201V19.2034H1.99307V11.1201H0.669434V8.27877H1.99307V6.12328C1.99307 4.89869 2.12042 3.50253 3.2658 2.32691C4.00394 1.56727 5.04759 1.07764 6.44766 1.07764C7.26213 1.07764 7.92384 1.22453 8.53495 1.44486V4.53126C8.12772 4.28624 7.59304 4.11488 7.13478 4.11488C6.5749 4.11488 6.21848 4.35989 6.06573 4.55574C5.65849 5.07026 5.65849 5.92753 5.65849 6.44174V8.27887H8.56036V11.1203H5.65849V11.1201Z" fill="white"/>
<path d="M19.0627 17.806C18.2071 18.7858 16.7527 19.5699 14.8917 19.5699C13.0309 19.5699 11.5763 18.7859 10.7207 17.806C9.7583 16.7036 9.2876 15.136 9.2876 13.7402C9.2876 12.3439 9.7583 10.7763 10.7207 9.67389C11.5763 8.69412 13.0309 7.9104 14.8917 7.9104C16.7527 7.9104 18.2071 8.69401 19.0627 9.67389C20.0253 10.7763 20.4958 12.344 20.4958 13.7402C20.4958 15.1361 20.0253 16.7037 19.0627 17.806ZM13.1593 11.6824C12.7101 12.1968 12.4534 12.858 12.4534 13.7401C12.4534 14.7443 12.7955 15.381 13.1593 15.7974C13.5442 16.2383 14.1004 16.5813 14.9131 16.5813C15.5976 16.5813 16.1752 16.3118 16.6244 15.7974C17.0734 15.2829 17.3301 14.6218 17.3301 13.7401C17.3301 12.858 17.0734 12.1968 16.6244 11.6824C16.1752 11.1682 15.5976 10.8988 14.8918 10.8988C14.1859 10.8988 13.6084 11.1682 13.1594 11.6824H13.1593Z" fill="white"/>
<path d="M25.7148 13.2506L21.9288 8.27808H25.8644L27.6398 10.8011L29.4152 8.27808H33.3508L29.5649 13.2506L34.2277 19.2027H30.2492L27.6398 15.6755L25.0303 19.2027H21.0519L25.7148 13.2506Z" fill="white"/>
<path d="M35.4686 8.27939H38.5486V9.55314C39.34 8.18167 40.495 8.00989 41.2223 8.00989C41.6288 8.00989 42.3774 8.05906 43.0191 8.50003C43.511 8.81839 43.9175 9.35739 44.174 10.0188C44.4094 9.57762 44.773 9.06341 45.3934 8.62243C46.0564 8.15688 46.6767 8.00989 47.4253 8.00989C48.5805 8.00989 49.5215 8.4019 50.099 9.03903C51.0187 10.0433 51.083 11.5128 51.083 12.2968V19.2041H48.0029V13.6683C48.0029 13.1049 48.0029 12.125 47.5964 11.5372C47.3397 11.1699 46.9335 10.9493 46.4842 10.9493C45.9708 10.9493 45.5429 11.2188 45.2864 11.6108C44.8799 12.1987 44.8158 13.0559 44.8158 13.7663V19.2039H41.7359V13.5212C41.7359 12.7863 41.7145 11.929 41.2439 11.3901C40.923 11.0229 40.538 10.9492 40.2172 10.9492C39.8107 10.9492 39.4473 11.0718 39.1477 11.3901C38.5702 12.0271 38.5488 13.2517 38.5488 13.6192V19.2039H35.4688V8.27929L35.4686 8.27939Z" fill="white"/>
<path d="M55.2544 1.56604C56.2598 1.56604 57.0512 2.47257 57.0512 3.62381C57.0512 4.77495 56.2598 5.68117 55.2544 5.68117C54.2491 5.68117 53.4578 4.77495 53.4578 3.62381C53.4578 2.47257 54.2491 1.56604 55.2544 1.56604ZM57.0512 8.48748V19.4121L53.7145 19.2022V8.27754L57.0512 8.48748Z" fill="white"/>
<path d="M59.403 8.27811H62.4829V9.57635C63.4242 8.20477 64.5365 7.98413 65.4347 7.98413C66.2689 7.98413 67.3599 8.1556 68.1725 9.08651C69.071 10.1152 69.135 11.4134 69.135 12.2955V19.2028H66.0551V13.5938C66.0551 12.8834 66.0339 11.9769 65.5418 11.4135C65.3064 11.144 64.9214 10.9236 64.3654 10.9236C63.7236 10.9236 63.3171 11.2176 63.0819 11.5115C62.5684 12.0995 62.4829 12.8834 62.4829 13.5938V19.2028H59.403V8.27811Z" fill="white"/>
<path d="M81.9261 19.2036H78.8462V17.881C78.3757 18.6646 77.52 19.5712 75.8306 19.5712C74.4186 19.5712 73.3921 19.0567 72.5579 18.0768C71.574 16.9499 71.0607 15.3824 71.0607 13.6921C71.0607 11.8798 71.638 10.3854 72.5579 9.38116C73.3921 8.47493 74.5685 7.91156 75.8734 7.91156C76.9213 7.91156 78.0764 8.30356 78.8463 9.50367V1.34705H81.9262V19.2034L81.9261 19.2036ZM74.9748 11.6838C74.5256 12.1739 74.2261 12.8843 74.2261 13.766C74.2261 14.5744 74.5256 15.2844 74.9748 15.7745C75.4453 16.289 76.0443 16.5337 76.5791 16.5337C77.1563 16.5337 77.8409 16.2642 78.3329 15.7256C78.6967 15.3336 79.0388 14.6722 79.0388 13.7661C79.0388 12.8351 78.7178 12.1984 78.3541 11.7575C77.8624 11.1696 77.2849 10.9491 76.6219 10.9491C76.0015 10.9491 75.4668 11.1449 74.9748 11.6839V11.6838Z" fill="white"/>
<path d="M94.2696 14.3526H87.1468C87.1468 14.9405 87.3391 15.7244 87.7243 16.2142C88.1948 16.8021 88.8367 16.9001 89.3072 16.9001C89.7564 16.9001 90.2269 16.802 90.5478 16.5816C90.5906 16.5568 90.9542 16.2878 91.2108 15.6751L94.1197 16.0183C93.692 17.5611 92.8363 18.3695 92.2803 18.7616C91.3603 19.3982 90.334 19.57 89.2644 19.57C87.8311 19.57 86.5693 19.276 85.457 18.0023C84.6228 17.0469 84.024 15.6018 84.024 13.789C84.024 12.2214 84.5157 10.6049 85.4785 9.47803C86.6333 8.15521 88.0665 7.9104 89.136 7.9104C90.2056 7.9104 91.7456 8.13073 92.9219 9.55137C94.0554 10.9231 94.2696 12.6378 94.2696 13.9848V14.3524V14.3526ZM91.4246 12.246C91.4031 12.1478 91.2536 11.4624 90.8043 10.9722C90.4622 10.605 89.9701 10.36 89.3499 10.36C88.5585 10.36 88.0877 10.7275 87.7883 11.0703C87.5533 11.3642 87.3391 11.7561 87.2535 12.246H91.4246Z" fill="white"/>
<path d="M106.59 19.2036H103.51V17.881C103.039 18.6646 102.183 19.5712 100.494 19.5712C99.082 19.5712 98.0556 19.0567 97.2214 18.0768C96.2374 16.9499 95.7242 15.3824 95.7242 13.6921C95.7242 11.8798 96.3013 10.3854 97.2214 9.38116C98.0556 8.47493 99.2319 7.91156 100.537 7.91156C101.585 7.91156 102.74 8.30356 103.51 9.50367V1.34705H106.59V19.2034L106.59 19.2036ZM99.6382 11.6838C99.189 12.1739 98.8896 12.8843 98.8896 13.766C98.8896 14.5744 99.189 15.2844 99.6382 15.7745C100.109 16.289 100.708 16.5337 101.242 16.5337C101.82 16.5337 102.504 16.2642 102.996 15.7256C103.36 15.3336 103.702 14.6722 103.702 13.7661C103.702 12.8351 103.381 12.1984 103.018 11.7575C102.526 11.1696 101.948 10.9491 101.285 10.9491C100.665 10.9491 100.13 11.1449 99.6382 11.6839V11.6838Z" fill="white"/>
</svg>
